<?xml version="1.0"?>
<svg xmlns="http://www.w3.org/2000/svg" viewBox="0 0 64 64">
    <path d="M 31 6.2363281 C 30.53925 6.2363281 30.078203 6.3427344 29.658203 6.5527344 L 3.6582031 19.552734 C 2.6362031 20.064734 2 21.093328 2 22.236328 L 2 25.382812 C 2 26.080813 2.3532656 26.715031 2.9472656 27.082031 C 3.5412656 27.447031 4.2685313 27.480875 4.8945312 27.171875 L 6 26.617188 L 6 58 L 3 58 C 2.447 58 2 58.447 2 59 C 2 59.553 2.447 60 3 60 L 6 60 L 12 60 L 50 60 L 56 60 L 59 60 C 59.553 60 60 59.553 60 59 C 60 58.447 59.553 58 59 58 L 56 58 L 56 26.617188 L 57.105469 27.171875 C 57.389469 27.314875 57.696953 27.384766 58.001953 27.384766 C 58.365953 27.384766 58.729734 27.281031 59.052734 27.082031 C 59.646734 26.715031 60 26.080812 60 25.382812 L 60 22.236328 C 60 21.092328 59.363797 20.064734 58.341797 19.552734 L 32.341797 6.5527344 C 31.921797 6.3427344 31.46075 6.2363281 31 6.2363281 z M 31.001953 8.234375 C 31.155828 8.2345 31.307766 8.2712969 31.447266 8.3417969 L 57.447266 21.341797 C 57.787266 21.512797 58 21.854328 58 22.236328 L 58 25.382812 L 31.894531 12.328125 C 31.614531 12.188125 31.308 12.119141 31 12.119141 C 30.692 12.119141 30.386469 12.188125 30.105469 12.328125 L 4 25.382812 L 4 22.236328 C 4 21.854328 4.2117344 21.511797 4.5527344 21.341797 L 30.552734 8.3417969 C 30.693734 8.2707969 30.848078 8.23425 31.001953 8.234375 z M 31 14.117188 L 54 25.617188 L 54 58 L 50 58 L 50 35 C 50 33.346 48.654 32 47 32 L 15 32 C 13.346 32 12 33.346 12 35 L 12 58 L 8 58 L 8 25.617188 L 31 14.117188 z M 11 26 C 10.447 26 10 26.447 10 27 L 10 29 C 10 29.553 10.447 30 11 30 C 11.553 30 12 29.553 12 29 L 12 27 C 12 26.447 11.553 26 11 26 z M 16 26 C 15.447 26 15 26.447 15 27 L 15 29 C 15 29.553 15.447 30 16 30 C 16.553 30 17 29.553 17 29 L 17 27 C 17 26.447 16.553 26 16 26 z M 21 26 C 20.447 26 20 26.447 20 27 L 20 29 C 20 29.553 20.447 30 21 30 C 21.553 30 22 29.553 22 29 L 22 27 C 22 26.447 21.553 26 21 26 z M 26 26 C 25.447 26 25 26.447 25 27 L 25 29 C 25 29.553 25.447 30 26 30 C 26.553 30 27 29.553 27 29 L 27 27 C 27 26.447 26.553 26 26 26 z M 31 26 C 30.447 26 30 26.447 30 27 L 30 29 C 30 29.553 30.447 30 31 30 C 31.553 30 32 29.553 32 29 L 32 27 C 32 26.447 31.553 26 31 26 z M 36 26 C 35.447 26 35 26.447 35 27 L 35 29 C 35 29.553 35.447 30 36 30 C 36.553 30 37 29.553 37 29 L 37 27 C 37 26.447 36.553 26 36 26 z M 41 26 C 40.447 26 40 26.447 40 27 L 40 29 C 40 29.553 40.447 30 41 30 C 41.553 30 42 29.553 42 29 L 42 27 C 42 26.447 41.553 26 41 26 z M 46 26 C 45.447 26 45 26.447 45 27 L 45 29 C 45 29.553 45.447 30 46 30 C 46.553 30 47 29.553 47 29 L 47 27 C 47 26.447 46.553 26 46 26 z M 51 26 C 50.447 26 50 26.447 50 27 L 50 29 C 50 29.553 50.447 30 51 30 C 51.553 30 52 29.553 52 29 L 52 27 C 52 26.447 51.553 26 51 26 z M 15 34 L 47 34 C 47.552 34 48 34.448 48 35 L 48 40 L 14 40 L 14 35 C 14 34.448 14.448 34 15 34 z M 29 36 C 28.447 36 28 36.447 28 37 C 28 37.553 28.447 38 29 38 L 33 38 C 33.553 38 34 37.553 34 37 C 34 36.447 33.553 36 33 36 L 29 36 z M 14 42 L 48 42 L 48 52 L 14 52 L 14 48 L 37 48 C 37.553 48 38 47.553 38 47 C 38 46.447 37.553 46 37 46 L 14 46 L 14 42 z M 41 46 C 40.447 46 40 46.447 40 47 C 40 47.553 40.447 48 41 48 L 45 48 C 45.553 48 46 47.553 46 47 C 46 46.447 45.553 46 45 46 L 41 46 z M 14 54 L 48 54 L 48 58 L 14 58 L 14 54 z"/>
</svg>
